<?xml version="1.0" standalone="no"?>
<!DOCTYPE svg PUBLIC "-//W3C//DTD SVG 1.1//EN" "http://www.w3.org/Graphics/SVG/1.1/DTD/svg11.dtd" >
<svg xmlns="http://www.w3.org/2000/svg">
<metadata>Generated by IcoMoon</metadata>
<defs>
<font id="static-icons" horiz-adv-x="1024">
<font-face units-per-em="1024" ascent="960" descent="-64" />
<missing-glyph horiz-adv-x="1024" />
<glyph unicode="&#x20;" horiz-adv-x="512" d="" />
<glyph unicode="&#xe900;" glyph-name="quote-mark" horiz-adv-x="1117" d="M0 440.483c0 122.135 26.182 226.723 78.545 313.809s126.068 155.671 221.091 205.708l165.818-177.175c-50.432-26.019-92.113-64.559-125.091-115.619-32.977-51.037-49.455-110.592-49.455-178.665v-60.044h174.545v-492.497h-465.455v504.483zM651.636 440.483c0 122.135 26.182 226.723 78.545 313.809s126.068 155.648 221.091 205.708l165.818-177.175c-50.432-26.019-92.113-64.559-125.091-115.619-32.977-51.037-49.455-110.592-49.455-178.665v-60.044h174.545v-492.497h-465.455v504.483z" />
<glyph unicode="&#xe901;" glyph-name="arrow-down-secondary" d="M512-64c-281.6 0-512 230.4-512 512s230.4 512 512 512c281.6 0 512-230.4 512-512s-230.4-512-512-512zM512 857.6c-225.28 0-409.6-184.32-409.6-409.6s184.32-409.6 409.6-409.6 409.6 184.32 409.6 409.6-184.32 409.6-409.6 409.6zM532.48 294.4l-25.6-25.6-35.84 35.84-163.84 174.080 71.68 71.68 133.12-133.12 133.12 133.12 71.68-71.68-184.32-184.32z" />
<glyph unicode="&#xe902;" glyph-name="arrow-left-secondary" d="M512-64c-281.6 0-512 230.4-512 512s230.4 512 512 512c281.6 0 512-230.4 512-512s-230.4-512-512-512zM512 857.6c-225.28 0-409.6-184.32-409.6-409.6s184.32-409.6 409.6-409.6 409.6 184.32 409.6 409.6-184.32 409.6-409.6 409.6zM358.4 468.48l-25.6-25.6 35.84-35.84 174.080-163.84 71.68 71.68-133.12 133.12 133.12 133.12-71.68 71.68-184.32-184.32z" />
<glyph unicode="&#xe903;" glyph-name="arrow-right-secondary" d="M512-64c-281.6 0-512 230.4-512 512s230.4 512 512 512c281.6 0 512-230.4 512-512s-230.4-512-512-512zM512 857.6c-225.28 0-409.6-184.32-409.6-409.6s184.32-409.6 409.6-409.6 409.6 184.32 409.6 409.6-184.32 409.6-409.6 409.6zM665.6 468.48l25.6-25.6-35.84-35.84-174.080-163.84-71.68 71.68 133.12 133.12-133.12 133.12 71.68 71.68 184.32-184.32z" />
<glyph unicode="&#xe904;" glyph-name="carousel-video-play-hover" d="M512-64c-282.88 0-512 229.12-512 512s229.12 512 512 512c282.88 0 512-229.12 512-512s-229.12-512-512-512zM512 857.6c-225.28 0-409.6-184.32-409.6-409.6s184.32-409.6 409.6-409.6c225.28 0 409.6 184.32 409.6 409.6s-184.32 409.6-409.6 409.6zM409.6 624.64l294.4-175.36-294.4-174.080v349.44z" />
<glyph unicode="&#xe905;" glyph-name="close-secondary" d="M512-64c-281.6 0-512 230.4-512 512s230.4 512 512 512c281.6 0 512-230.4 512-512s-230.4-512-512-512zM512 857.6c-225.28 0-409.6-184.32-409.6-409.6s184.32-409.6 409.6-409.6 409.6 184.32 409.6 409.6-184.32 409.6-409.6 409.6zM440.32 448l-143.36-143.36 71.68-71.68 143.36 143.36 143.36-143.36 71.68 71.68-143.36 143.36 143.36 143.36-71.68 71.68-143.36-143.36-143.36 143.36-71.68-71.68 143.36-143.36z" />
<glyph unicode="&#xe906;" glyph-name="filter" d="M438.857-56.686v504.686l-438.857 512h1024l-438.857-512v-358.4l-146.286-146.286zM314.514 813.714l197.486-226.743 197.486 226.743h-394.971z" />
<glyph unicode="&#xe907;" glyph-name="carousel-video-play-initial" d="M512 960c-282.88 0-512-229.12-512-512s229.12-512 512-512c282.88 0 512 229.12 512 512s-229.12 512-512 512zM512 38.4c-225.28 0-409.6 184.32-409.6 409.6s184.32 409.6 409.6 409.6c225.28 0 409.6-184.32 409.6-409.6s-184.32-409.6-409.6-409.6zM409.6 275.2l294.4 174.080-294.4 175.36z" />
<glyph unicode="&#xe908;" glyph-name="icon-addfile" d="M689.493 884.907l197.973-197.973v-679.253h-740.693v877.227h542.72zM788.48 113.493l-3.413 529.067-139.947 139.947h-395.947v-669.013h539.307zM570.027 625.493v-126.293h126.293v-102.4h-126.293v-126.293h-102.4v126.293h-126.293v102.4h126.293v126.293h102.4z" />
<glyph unicode="&#xe909;" glyph-name="icon-document" d="M955.733-64h-887.467v1024h621.227l266.24-273.067v-750.933zM204.8 72.533h614.4v552.96l-191.147 197.973h-423.253v-750.933zM341.333 550.4h341.333v-136.533h-341.333v136.533zM341.333 345.6h341.333v-136.533h-341.333v136.533z" />
<glyph unicode="&#xe90a;" glyph-name="error" d="M512 38.4c226.219 0 409.6 183.381 409.6 409.6s-183.381 409.6-409.6 409.6-409.6-183.381-409.6-409.6 183.381-409.6 409.6-409.6zM512-64c-282.769 0-512 229.231-512 512s229.231 512 512 512 512-229.231 512-512-229.231-512-512-512zM307.2 584.533h102.4v-102.4h-102.4zM614.4 584.533h102.4v-102.4h-102.4zM512 345.6c37.703 0 68.267-30.564 68.267-68.267s-30.564-68.267-68.267-68.267v0c-37.703 0-68.267 30.564-68.267 68.267s30.564 68.267 68.267 68.267v0zM512 430.933c-84.83 0-153.6-68.77-153.6-153.6s68.77-153.6 153.6-153.6 153.6 68.77 153.6 153.6-68.77 153.6-153.6 153.6z" />
<glyph unicode="&#xe90b;" glyph-name="footer-dropdown-arrow" horiz-adv-x="1536" d="M1506.731 689.323l-724.053-724.053-241.408 241.408 724.053 724.053zM29.269 689.323l724.053-724.053 241.408 241.408-724.053 724.053z" />
<glyph unicode="&#xe90c;" glyph-name="arrow-right-navy" horiz-adv-x="614" d="M510.669 491.52l47.002-47.104-72.909-72.704-2.355 2.355-336.384-336.384-145.715 145.715 264.499 264.602-264.499 264.602 145.715 145.715 365.67-365.773-1.024-1.024z" />
<glyph unicode="&#xe90d;" glyph-name="arrow-right-navy-hover" horiz-adv-x="614" d="M510.669 491.52l47.002-47.104-72.909-72.704-2.355 2.355-336.384-336.384-145.715 145.715 264.499 264.602-264.499 264.602 145.715 145.715 365.67-365.773-1.024-1.024z" />
<glyph unicode="&#xe90e;" glyph-name="close-modal" d="M512 537.372l397.824 397.824 89.316-89.372-397.71-397.824 397.824-397.824-89.372-89.316-397.881 397.71-397.824-397.824-89.316 89.372 397.71 397.881-397.767 397.824 89.372 89.316 397.824-397.71z" />
<glyph unicode="&#xe90f;" glyph-name="chevron-grey" horiz-adv-x="1536" d="M1283.413 960.683l253.269-253.269-770.731-770.731-766.635 766.635 253.269 253.269 513.365-513.365 517.461 517.461z" />
<glyph unicode="&#xe910;" glyph-name="chevron-white" horiz-adv-x="1536" d="M1283.413-64.683l253.269 253.269-770.731 770.731-766.635-766.635 253.269-253.269 513.365 513.365 517.461-517.461z" />
<glyph unicode="&#xe911;" glyph-name="contactusheader" d="M538.917 46.592c210.288 14.53 375.369 188.679 375.369 401.384 0 222.176-180.109 402.286-402.286 402.286-222.168 0-402.272-180.096-402.286-402.261v-402.287h415.817l13.385 0.878zM0 448c0.025 282.751 229.246 511.956 512 511.956 282.77 0 512-229.23 512-512 0-270.751-210.158-492.417-476.248-510.771l-1.595-0.088v-1.097h-546.158v512zM292.571 594.286h438.857v-109.714h-438.857zM292.571 374.857h438.857v-109.714h-438.857z" />
<glyph unicode="&#xe912;" glyph-name="close" d="M512-64c-283.307 0-512 228.693-512 512s228.693 512 512 512c283.307 0 512-228.693 512-512s-228.693-512-512-512zM512 891.733c-245.76 0-443.733-197.973-443.733-443.733s197.973-443.733 443.733-443.733c245.76 0 443.733 197.973 443.733 443.733s-197.973 443.733-443.733 443.733zM307.2 482.133h409.6v-68.267h-409.6v68.267z" />
<glyph unicode="&#xe913;" glyph-name="open" d="M554.064 958.304l20.688-2.096 20.432-2.896 20.16-3.696 19.872-4.464 19.568-5.232 19.248-5.968 18.928-6.704 18.56-7.408 18.192-8.112 17.824-8.768 17.408-9.456 16.992-10.080 16.56-10.72 16.112-11.328 15.648-11.936 15.168-12.512 14.672-13.072 14.144-13.616 13.616-14.144 13.072-14.672 12.512-15.168 11.936-15.648 11.328-16.112 10.72-16.56 10.080-16.992 9.456-17.408 8.768-17.824 8.112-18.192 7.408-18.56 6.704-18.928 5.968-19.248 5.232-19.568 4.464-19.872 3.696-20.16 2.896-20.432 2.096-20.688 1.264-20.928 0.432-21.136-0.432-21.136-1.264-20.928-2.096-20.688-2.896-20.432-3.696-20.16-4.464-19.872-5.232-19.568-5.968-19.248-6.704-18.928-7.408-18.56-8.112-18.192-8.768-17.824-9.456-17.408-10.080-16.992-10.72-16.56-11.328-16.112-11.936-15.648-12.512-15.168-13.072-14.672-13.616-14.144-14.144-13.616-14.672-13.072-15.168-12.512-15.648-11.936-16.112-11.328-16.56-10.72-16.992-10.080-17.408-9.456-17.824-8.768-18.192-8.112-18.56-7.408-18.928-6.704-19.248-5.968-19.568-5.232-19.872-4.464-20.16-3.696-20.432-2.896-20.688-2.096-20.928-1.264-21.136-0.432-21.136 0.432-20.928 1.264-20.688 2.096-20.432 2.896-20.16 3.696-19.872 4.464-19.568 5.232-19.248 5.968-18.928 6.704-18.56 7.408-18.192 8.112-17.824 8.768-17.408 9.456-16.992 10.080-16.56 10.72-16.112 11.328-15.648 11.936-15.168 12.512-14.672 13.072-14.144 13.616-13.616 14.144-13.072 14.672-12.512 15.168-11.936 15.648-11.328 16.112-10.72 16.56-10.080 16.992-9.456 17.408-8.768 17.824-8.112 18.192-7.408 18.56-6.704 18.928-5.968 19.248-5.232 19.568-4.464 19.872-3.696 20.16-2.896 20.432-2.096 20.688-1.264 20.928-0.432 21.136 0.432 21.136 1.264 20.928 2.096 20.688 2.896 20.432 3.696 20.16 4.464 19.872 5.232 19.568 5.968 19.248 6.704 18.928 7.408 18.56 8.112 18.192 8.768 17.824 9.456 17.408 10.080 16.992 10.72 16.56 11.328 16.112 11.936 15.648 12.512 15.168 13.072 14.672 13.616 14.144 14.144 13.616 14.672 13.072 15.168 12.512 15.648 11.936 16.112 11.328 16.56 10.72 16.992 10.080 17.408 9.456 17.824 8.768 18.192 8.112 18.56 7.408 18.928 6.704 19.248 5.968 19.568 5.232 19.872 4.464 20.16 3.696 20.432 2.896 20.688 2.096 20.928 1.264 21.136 0.432 21.136-0.432 20.928-1.264zM474.448 485.552h-167.248v-75.104h167.248v-167.248h75.104v167.248h167.248v75.104h-167.248v167.248h-75.104v-167.248z" />
<glyph unicode="&#xe915;" glyph-name="arrow-right-green" horiz-adv-x="768" d="M638.336 502.4l58.752-58.88-91.136-90.88-2.944 2.944-420.48-420.48-182.144 182.144 330.624 330.752-330.624 330.752 182.144 182.144 457.088-457.216-1.28-1.28z" />
<glyph unicode="&#xe916;" glyph-name="arrow-right-dark" horiz-adv-x="768" d="M638.306 502.377l58.765-58.765-91.082-91.082-3.041 3.041-420.438-420.438-182.164 182.164 330.703 330.703-330.703 330.703 182.164 182.164 457.143-457.143-1.347-1.347z" />
<glyph unicode="&#xe917;" glyph-name="external" d="M512 960h512v-128h-512zM896 960h128v-512h-128zM908.315 952.233l90.51-90.51-452.548-452.548-90.51 90.51zM0 576h512v-128h-512zM128 448v-512h-128v512zM640 576v-512h-128v512zM128 64h512v-128h-512z" />
<glyph unicode="&#xe918;" glyph-name="download" d="M896 320h128v-384h-128zM448 960h128v-704h-128zM722.816 527.424l79.488-79.424-289.216-289.152-289.088 289.088 79.424 79.424 209.664-209.664 209.728 209.728zM0 320h128v-384h-128zM0 64h1024v-128h-1024z" />
<glyph unicode="&#xe919;" glyph-name="close-map-white" d="M521.088 539.52l402.304 402.176 100.48-100.608-402.24-402.24 402.368-402.24-100.544-100.48-402.304 402.24-402.304-402.368-100.608 100.608 402.304 402.304-402.304 402.24 100.608 100.608 402.24-402.304z" />
<glyph unicode="&#xe91a;" glyph-name="phone" d="M878.446 81.518c-47.726-47.689-125.294-47.689-172.983 0l-559.945 559.945c-47.689 47.653-47.689 125.294 0 172.983 23.113 23.113 53.833 35.84 86.528 35.84 32.658 0 63.378-12.727 86.491-35.84 43.374-43.374 47.287-112.823 9.033-161.499l-30.025-38.254 381.147-381.147 38.254 30.062c48.64 38.217 118.089 34.377 161.499-9.106 23.113-23.040 35.84-53.76 35.84-86.455 0-32.658-12.727-63.415-35.84-86.528zM956.014 332.142c-70.766 70.729-177.627 86.491-264.814 44.069l-250.99 250.99c42.423 87.223 26.661 194.085-44.069 264.814-43.849 43.813-102.107 67.986-164.096 67.986s-120.247-24.137-164.096-67.986c-43.813-43.813-67.95-102.071-67.95-164.059 0-62.025 24.137-120.247 67.95-164.096l559.909-559.909c43.849-43.813 102.107-67.95 164.096-67.95s120.247 24.137 164.059 67.95c43.849 43.813 67.95 102.107 67.986 164.059 0 62.025-24.137 120.283-67.986 164.133z" />
<glyph unicode="&#xe91b;" glyph-name="arrow-circle-down-white" d="M677.649 550.4l-153.225-153.225-153.225 153.225-64-64 217.225-217.225 217.225 217.225-64 64zM512-64c-282.761 0-512 229.239-512 512s229.239 512 512 512c282.761 0 512-229.239 512-512s-229.239-512-512-512z" />
<glyph unicode="&#xe91c;" glyph-name="calendar" d="M764.587 820.053v95.573h-102.4v-95.573h-300.373v95.573h-102.4v-95.573h-157.013v-815.787h815.787v815.787h-153.6zM815.787 717.653v-81.92h-607.573v81.92h607.573zM208.213 106.667v426.667h607.573v-426.667h-607.573z" />
<glyph unicode="&#xe91d;" glyph-name="filter-new" d="M78.5 908.458l303.787-358.058v-562.857l259.070 212.306v350.551l303.79 358.4-866.647-0.342zM556.365 581.462v-341.334l-88.745-72.023v413.357l-204.8 242.005h498.007l-204.462-242.005z" />
<glyph unicode="&#xe91e;" glyph-name="elipse" d="M1024 448c0-282.77-229.23-512-512-512s-512 229.23-512 512c0 282.77 229.23 512 512 512s512-229.23 512-512z" />
<glyph unicode="&#xe923;" d="M0 448c0-282.77 229.23-512 512-512s512 229.23 512 512c0 282.77-229.23 512-512 512s-512-229.23-512-512z" />
<glyph unicode="&#xe924;" d="M439.603 448l-144.845-144.794 72.448-72.448 144.794 144.845 144.794-144.845 72.448 72.448-144.845 144.794 144.845 144.794-72.448 72.448-144.794-144.845-144.794 144.845-72.448-72.448 144.845-144.794z" />
<glyph unicode="&#xe925;" d="M512-64c-282.77 0-512 229.23-512 512s229.23 512 512 512c282.77 0 512-229.23 512-512s-229.23-512-512-512z" />
<glyph unicode="&#xe926;" d="M533.402 295.219l-23.552-23.552-36.352 36.454 1.178 1.229-168.192 168.192 72.909 72.858 132.25-132.301 132.301 132.301 72.858-72.858-182.835-182.886-0.563 0.512z" />
<glyph unicode="&#xe927;" d="M0 448c0-282.77 229.23-512 512-512s512 229.23 512 512c0 282.77-229.23 512-512 512s-512-229.23-512-512z" />
<glyph unicode="&#xe928;" d="M359.219 469.402l-23.552-23.552 36.454-36.352 1.229 1.178 168.192-168.192 72.858 72.909-132.301 132.25 132.301 132.301-72.858 72.858-182.886-182.835 0.512-0.563z" />
<glyph unicode="&#xe929;" d="M1024 448c0-282.77-229.23-512-512-512s-512 229.23-512 512c0 282.77 229.23 512 512 512s512-229.23 512-512z" />
<glyph unicode="&#xe92a;" d="M664.781 469.402l23.552-23.552-36.454-36.352-1.229 1.178-168.192-168.192-72.858 72.909 132.301 132.25-132.301 132.301 72.858 72.858 182.886-182.835-0.512-0.563z" />
<glyph unicode="&#xe92b;" glyph-name="share-hover" d="M358.4 483.84c5.12-10.24 5.12-25.6 5.12-40.96 0-10.24 0-20.48-5.12-25.6l343.040-209.92c25.6 25.6 56.32 35.84 92.16 35.84 71.68 0 133.12-61.44 133.12-133.12s-61.44-133.12-133.12-133.12-128 61.44-128 133.12c0 10.24 0 15.36 0 25.6l-343.040 209.92c-25.6-20.48-56.32-35.84-92.16-35.84-71.68 0-133.12 61.44-133.12 133.12s61.44 133.12 133.12 133.12c30.72 0 56.32-10.24 81.92-25.6l353.28 215.040c0 5.12 0 5.12 0 10.24 0 71.68 61.44 133.12 133.12 133.12s133.12-61.44 133.12-133.12-61.44-128-133.12-128c-40.96 0-76.8 20.48-102.4 46.080l-337.92-209.92zM235.52 396.8c25.6 0 46.080 20.48 46.080 46.080s-20.48 51.2-46.080 51.2-46.080-20.48-46.080-46.080 15.36-51.2 46.080-51.2zM798.72 729.6c25.6 0 46.080 20.48 46.080 46.080s-20.48 46.080-46.080 46.080c-25.6 0-46.080-20.48-46.080-46.080s15.36-46.080 46.080-46.080zM798.72 64c25.6 0 46.080 20.48 46.080 46.080s-20.48 46.080-46.080 46.080c-25.6 0-46.080-20.48-46.080-46.080-5.12-25.6 15.36-46.080 46.080-46.080z" />
<glyph unicode="&#xe92c;" glyph-name="share" d="M359.502 484.424c4.035-12.638 6.212-26.105 6.212-40.082 0-9.473-1-18.712-2.902-27.618l342.14-211.301c23.76 23.364 56.349 37.777 92.304 37.777 72.712 0 131.657-58.945 131.657-131.657s-58.945-131.657-131.657-131.657c-72.712 0-131.657 58.945-131.657 131.657 0 8.216 0.753 16.255 2.192 24.054l-343.972 212.432c-23.517-21.927-55.073-35.344-89.763-35.344-72.712 0-131.657 58.945-131.657 131.657s58.945 131.657 131.657 131.657c30.020 0 57.694-10.048 79.841-26.963l352.125 217.468c-0.281 3.509-0.424 7.057-0.424 10.639 0 72.712 58.945 131.657 131.657 131.657s131.657-58.945 131.657-131.657c0-72.712-58.945-131.657-131.657-131.657-40.48 0-76.692 18.269-100.843 47.011l-336.912-208.072zM234.057 395.838c26.789 0 48.505 21.717 48.505 48.505s-21.717 48.505-48.505 48.505c-26.789 0-48.505-21.717-48.505-48.505s21.717-48.505 48.505-48.505zM797.257 728.638c26.789 0 48.505 21.717 48.505 48.505s-21.717 48.505-48.505 48.505c-26.789 0-48.505-21.717-48.505-48.505s21.717-48.505 48.505-48.505zM797.257 63.038c26.789 0 48.505 21.717 48.505 48.505s-21.717 48.505-48.505 48.505c-26.789 0-48.505-21.717-48.505-48.505s21.717-48.505 48.505-48.505z" />
<glyph unicode="&#xe92d;" glyph-name="search-dark" d="M691.507 340.89c44.114 58.898 70.638 133.19 70.638 213.677 0 197.995-160.507 358.502-358.502 358.502-98.553 0-187.817-39.767-252.623-104.129l0.020 0.020c-64.912-64.867-105.065-154.504-105.065-253.519 0-197.939 160.461-358.4 358.4-358.4 80.955 0 155.641 26.841 215.644 72.108l-0.909-0.657 328.397-328.397 72.397 72.397-328.397 328.397zM585.472 374.528c-46.404-46.801-110.724-75.775-181.81-75.775-141.385 0-256 114.615-256 256 0 71.087 28.974 135.406 75.758 181.793l0.018 0.017c46.246 45.854 109.927 74.19 180.225 74.19 141.385 0 256-114.615 256-256 0-70.298-28.335-133.978-74.207-180.242l0.017 0.018z" />
<glyph unicode="&#xe930;" glyph-name="search-hover" d="M691.507 340.89c44.114 58.898 70.638 133.19 70.638 213.677 0 197.995-160.507 358.502-358.502 358.502-98.553 0-187.817-39.767-252.623-104.129l0.020 0.020c-64.912-64.867-105.065-154.504-105.065-253.519 0-197.939 160.461-358.4 358.4-358.4 80.955 0 155.641 26.841 215.644 72.108l-0.909-0.657 328.397-328.397 72.397 72.397-328.397 328.397zM585.472 374.528c-46.404-46.801-110.724-75.775-181.81-75.775-141.385 0-256 114.615-256 256 0 71.087 28.974 135.406 75.758 181.793l0.018 0.017c46.246 45.854 109.927 74.19 180.225 74.19 141.385 0 256-114.615 256-256 0-70.298-28.335-133.978-74.207-180.242l0.017 0.018z" />
<glyph unicode="&#xe931;" glyph-name="search" d="M691.507 340.89c44.114 58.898 70.638 133.19 70.638 213.677 0 197.995-160.507 358.502-358.502 358.502-98.553 0-187.817-39.767-252.623-104.129l0.020 0.020c-64.912-64.867-105.065-154.504-105.065-253.519 0-197.939 160.461-358.4 358.4-358.4 80.955 0 155.641 26.841 215.644 72.108l-0.909-0.657 328.397-328.397 72.397 72.397-328.397 328.397zM585.472 374.528c-46.404-46.801-110.724-75.775-181.81-75.775-141.385 0-256 114.615-256 256 0 71.087 28.974 135.406 75.758 181.793l0.018 0.017c46.246 45.854 109.927 74.19 180.225 74.19 141.385 0 256-114.615 256-256 0-70.298-28.335-133.978-74.207-180.242l0.017 0.018z" />
<glyph unicode="&#xe932;" glyph-name="refresh" horiz-adv-x="1075" d="M741.581 108.749c109.243 74.595 180.019 198.529 180.019 338.995 0 0.090 0 0.18 0 0.27v-0.014c0 0.217 0.001 0.474 0.001 0.731 0 89.525-28.873 172.307-77.816 239.541l0.81-1.168 46.49 105.011c82.426-90.292 132.916-210.968 132.916-343.437 0-0.238 0-0.476 0-0.715v0.037c0-282.778-229.222-512-512-512l0.102 0.205c-0.213 0-0.466-0.001-0.719-0.001-115.835 0-222.645 38.637-308.248 103.725l1.255-0.915-0.102-0.256c-124.609 94.266-204.288 242.244-204.288 408.832 0 0.144 0 0.288 0 0.432v-0.022c0 282.778 229.222 512 512 512l-34.714-103.834c-210.789-18.453-374.908-194.124-374.908-408.128 0-12.143 0.528-24.163 1.563-36.037l-0.108 1.541 0.205-0.051c18.402-210.837 194.097-375.012 408.137-375.012 85.612 0 165.090 26.266 230.814 71.178l-1.408-0.909zM460.8 952.013l51.2 7.987v-102.144l-51.2-2.97zM558.797 40.602l-46.797-3.84v-100.506l51.2 2.253zM768 755.2h102.4v-256h-102.4zM768 806.4v-102.4h307.2v102.4z" />
<glyph unicode="&#xe933;" glyph-name="arrow-circle-white" d="M651.418 483.84l-168.96 168.96-72.858-72.858 132.301-132.301-132.301-132.25 72.858-72.909 205.21 205.158-36.198 36.198zM512-64c-282.778 0-512 229.222-512 512s229.222 512 512 512 512-229.222 512-512-229.222-512-512-512z" />
<glyph unicode="&#xe934;" d="M924.604 144.794l4.233-151.552-163.021 10.001c-72.665-42.284-159.927-67.243-253.019-67.243-0.28 0-0.56 0-0.84 0.001h0.043c-282.761 0-512 229.239-512 512s229.239 512 512 512c282.761 0 512-229.239 512-512 0-113.459-36.898-218.317-99.396-303.206z" />
<glyph unicode="&#xe935;" d="M375.467 430.933c0-28.277-22.923-51.2-51.2-51.2s-51.2 22.923-51.2 51.2c0 28.277 22.923 51.2 51.2 51.2s51.2-22.923 51.2-51.2z" />
<glyph unicode="&#xe936;" d="M580.267 430.933c0-28.277-22.923-51.2-51.2-51.2s-51.2 22.923-51.2 51.2c0 28.277 22.923 51.2 51.2 51.2s51.2-22.923 51.2-51.2z" />
<glyph unicode="&#xe937;" d="M785.067 430.933c0-28.277-22.923-51.2-51.2-51.2s-51.2 22.923-51.2 51.2c0 28.277 22.923 51.2 51.2 51.2s51.2-22.923 51.2-51.2z" />
</font>
</defs>
</svg>
